<svg width="16" height="16" viewBox="0 0 16 16" fill="none" xmlns="http://www.w3.org/2000/svg">
<path d="M8 9.33333H1.33333C0.979711 9.33333 0.640573 9.19286 0.390524 8.94281C0.140476 8.69276 0 8.35362 0 8V1.33333C0 0.979711 0.140476 0.640573 0.390524 0.390524C0.640573 0.140476 0.979711 0 1.33333 0H8C8.35362 0 8.69276 0.140476 8.94281 0.390524C9.19286 0.640573 9.33333 0.979711 9.33333 1.33333V8C9.33333 8.35362 9.19286 8.69276 8.94281 8.94281C8.69276 9.19286 8.35362 9.33333 8 9.33333ZM1.33333 1.33333V8H8V1.33333H1.33333ZM14.6667 5.33333V8H12V5.33333H14.6667ZM14.6667 4H12C11.6464 4 11.3072 4.14048 11.0572 4.39052C10.8071 4.64057 10.6667 4.97971 10.6667 5.33333V8C10.6667 8.35362 10.8071 8.69276 11.0572 8.94281C11.3072 9.19286 11.6464 9.33333 12 9.33333H14.6667C15.0203 9.33333 15.3594 9.19286 15.6095 8.94281C15.8595 8.69276 16 8.35362 16 8V5.33333C16 4.97971 15.8595 4.64057 15.6095 4.39052C15.3594 4.14048 15.0203 4 14.6667 4ZM14.6667 12V14.6667H12V12H14.6667ZM14.6667 10.6667H12C11.6464 10.6667 11.3072 10.8071 11.0572 11.0572C10.8071 11.3072 10.6667 11.6464 10.6667 12V14.6667C10.6667 15.0203 10.8071 15.3594 11.0572 15.6095C11.3072 15.8595 11.6464 16 12 16H14.6667C15.0203 16 15.3594 15.8595 15.6095 15.6095C15.8595 15.3594 16 15.0203 16 14.6667V12C16 11.6464 15.8595 11.3072 15.6095 11.0572C15.3594 10.8071 15.0203 10.6667 14.6667 10.6667ZM8 12V14.6667H5.33333V12H8ZM8 10.6667H5.33333C4.97971 10.6667 4.64057 10.8071 4.39052 11.0572C4.14048 11.3072 4 11.6464 4 12V14.6667C4 15.0203 4.14048 15.3594 4.39052 15.6095C4.64057 15.8595 4.97971 16 5.33333 16H8C8.35362 16 8.69276 15.8595 8.94281 15.6095C9.19286 15.3594 9.33333 15.0203 9.33333 14.6667V12C9.33333 11.6464 9.19286 11.3072 8.94281 11.0572C8.69276 10.8071 8.35362 10.6667 8 10.6667Z" fill="#7B7B7B"/>
</svg>
