<svg width="16" height="16" viewBox="0 0 16 16" fill="none" xmlns="http://www.w3.org/2000/svg">
<path d="M1.6 9.6H4.8C5.22435 9.6 5.63131 9.76857 5.93137 10.0686C6.23143 10.3687 6.4 10.7757 6.4 11.2V14.4C6.4 14.8243 6.23143 15.2313 5.93137 15.5314C5.63131 15.8314 5.22435 16 4.8 16H1.6C1.17565 16 0.768687 15.8314 0.468629 15.5314C0.168571 15.2313 0 14.8243 0 14.4V11.2C0 10.7757 0.168571 10.3687 0.468629 10.0686C0.768687 9.76857 1.17565 9.6 1.6 9.6ZM6.4 0H9.6C10.0243 0 10.4313 0.168571 10.7314 0.468629C11.0314 0.768687 11.2 1.17565 11.2 1.6V4.8C11.2 5.22435 11.0314 5.63131 10.7314 5.93137C10.4313 6.23143 10.0243 6.4 9.6 6.4H6.4C5.97565 6.4 5.56869 6.23143 5.26863 5.93137C4.96857 5.63131 4.8 5.22435 4.8 4.8V1.6C4.8 1.17565 4.96857 0.768687 5.26863 0.468629C5.56869 0.168571 5.97565 0 6.4 0ZM11.2 9.6H14.4C14.8243 9.6 15.2313 9.76857 15.5314 10.0686C15.8314 10.3687 16 10.7757 16 11.2V14.4C16 14.8243 15.8314 15.2313 15.5314 15.5314C15.2313 15.8314 14.8243 16 14.4 16H11.2C10.7757 16 10.3687 15.8314 10.0686 15.5314C9.76857 15.2313 9.6 14.8243 9.6 14.4V11.2C9.6 10.7757 9.76857 10.3687 10.0686 10.0686C10.3687 9.76857 10.7757 9.6 11.2 9.6Z" fill="#7B7B7B"/>
<path d="M7.19999 7.2V5.6H8.79999V8.8H4.79999C4.58782 8.8 4.38434 8.88428 4.23431 9.03431C4.08428 9.18434 3.99999 9.38783 3.99999 9.6V10.348H2.39999V9.6C2.39999 8.96348 2.65285 8.35303 3.10294 7.90294C3.55303 7.45286 4.16347 7.2 4.79999 7.2H7.19999Z" fill="#7B7B7B"/>
<path d="M8 8.8V7.2H11.2C11.8365 7.2 12.447 7.45285 12.8971 7.90294C13.3471 8.35303 13.6 8.96348 13.6 9.6V10.416H12V9.6C12 9.38782 11.9157 9.18434 11.7657 9.03431C11.6157 8.88428 11.4122 8.8 11.2 8.8H8Z" fill="#7B7B7B"/>
</svg>
