<svg width="13" height="7" viewBox="0 0 13 7" fill="none" xmlns="http://www.w3.org/2000/svg">
<g clip-path="url(#clip0_1_400)">
<path d="M6.47059 6.11249C6.41923 6.11321 6.36832 6.10155 6.32112 6.07828C6.27391 6.055 6.23147 6.02062 6.19651 5.97733L2.67261 1.92278C2.51599 1.74258 2.51599 1.46326 2.67261 1.28306C2.82923 1.10286 3.07198 1.10286 3.2286 1.28306L6.47842 5.02226L9.7204 1.29207C9.87702 1.11187 10.1198 1.11187 10.2764 1.29207C10.433 1.47227 10.433 1.75159 10.2764 1.93179L6.7525 5.98634C6.67419 6.07645 6.57239 6.1215 6.47842 6.1215L6.47059 6.11249Z" fill="black"/>
</g>
<defs>
<clipPath id="clip0_1_400">
<rect width="12.5294" height="6.30709" fill="white" transform="translate(0.205872 0.255905)"/>
</clipPath>
</defs>
</svg>
