<svg width="11" height="11" viewBox="0 0 11 11" fill="none" xmlns="http://www.w3.org/2000/svg">
<g clip-path="url(#clip0_1_392)">
<path d="M9.35355 1.90551H8.19342V2.78149C8.19342 2.86585 8.17691 2.94939 8.14485 3.02733C8.11278 3.10526 8.06578 3.17608 8.00653 3.23573C7.94728 3.29538 7.87694 3.3427 7.79953 3.37498C7.72211 3.40727 7.63914 3.42388 7.55535 3.42388C7.47155 3.42388 7.38858 3.40727 7.31117 3.37498C7.23375 3.3427 7.16341 3.29538 7.10416 3.23573C7.04491 3.17608 6.99791 3.10526 6.96585 3.02733C6.93378 2.94939 6.91727 2.86585 6.91727 2.78149V1.90551H3.53839V2.78149C3.53839 2.95187 3.47117 3.11526 3.35151 3.23573C3.23185 3.3562 3.06955 3.42388 2.90032 3.42388C2.7311 3.42388 2.5688 3.3562 2.44914 3.23573C2.32948 3.11526 2.26225 2.95187 2.26225 2.78149V1.90551H1.10212C1.0331 1.90472 0.964621 1.91787 0.900737 1.94419C0.836853 1.9705 0.778859 2.00945 0.730186 2.05873C0.681513 2.108 0.643149 2.1666 0.617363 2.23106C0.591577 2.29552 0.578893 2.36454 0.580061 2.43402V8.96886C0.578909 9.03712 0.591124 9.10494 0.616009 9.16844C0.640895 9.23194 0.677962 9.28989 0.725095 9.33897C0.772228 9.38805 0.828503 9.4273 0.890705 9.45448C0.952908 9.48166 1.01982 9.49623 1.08762 9.49737H9.35355C9.42135 9.49623 9.48826 9.48166 9.55046 9.45448C9.61266 9.4273 9.66894 9.38805 9.71607 9.33897C9.76321 9.28989 9.80027 9.23194 9.82516 9.16844C9.85004 9.10494 9.86226 9.03712 9.86111 8.96886V2.43402C9.86226 2.36576 9.85004 2.29795 9.82516 2.23444C9.80027 2.17094 9.76321 2.11299 9.71607 2.06391C9.66894 2.01483 9.61266 1.97558 9.55046 1.94841C9.48826 1.92123 9.42135 1.90665 9.35355 1.90551ZM2.90032 7.7454H2.32026V7.16142H2.90032V7.7454ZM2.90032 6.28543H2.32026V5.70144H2.90032V6.28543ZM2.90032 4.82546H2.32026V4.24147H2.90032V4.82546ZM4.64052 7.7454H4.06045V7.16142H4.64052V7.7454ZM4.64052 6.28543H4.06045V5.70144H4.64052V6.28543ZM4.64052 4.82546H4.06045V4.24147H4.64052V4.82546ZM6.38071 7.7454H5.80065V7.16142H6.38071V7.7454ZM6.38071 6.28543H5.80065V5.70144H6.38071V6.28543ZM6.38071 4.82546H5.80065V4.24147H6.38071V4.82546ZM8.12091 7.7454H7.54084V7.16142H8.12091V7.7454ZM8.12091 6.28543H7.54084V5.70144H8.12091V6.28543ZM8.12091 4.82546H7.54084V4.24147H8.12091V4.82546Z" fill="#11998E"/>
<path d="M2.90032 3.07348C2.97724 3.07348 3.05102 3.04272 3.10541 2.98796C3.1598 2.9332 3.19036 2.85893 3.19036 2.78149V1.02952C3.19036 0.952077 3.1598 0.877807 3.10541 0.823047C3.05102 0.768288 2.97724 0.737524 2.90032 0.737524C2.8234 0.737524 2.74963 0.768288 2.69524 0.823047C2.64085 0.877807 2.61029 0.952077 2.61029 1.02952V2.78149C2.61029 2.85893 2.64085 2.9332 2.69524 2.98796C2.74963 3.04272 2.8234 3.07348 2.90032 3.07348Z" fill="#11998E"/>
<path d="M7.54084 3.07348C7.61776 3.07348 7.69153 3.04272 7.74593 2.98796C7.80032 2.9332 7.83087 2.85893 7.83087 2.78149V1.02952C7.83087 0.952077 7.80032 0.877807 7.74593 0.823047C7.69153 0.768288 7.61776 0.737524 7.54084 0.737524C7.46392 0.737524 7.39015 0.768288 7.33576 0.823047C7.28137 0.877807 7.25081 0.952077 7.25081 1.02952V2.78149C7.25081 2.85893 7.28137 2.9332 7.33576 2.98796C7.39015 3.04272 7.46392 3.07348 7.54084 3.07348Z" fill="#11998E"/>
</g>
<defs>
<clipPath id="clip0_1_392">
<rect width="10.4412" height="10.5118" fill="white" transform="translate(0 0.153549)"/>
</clipPath>
</defs>
</svg>
