<svg width="18" height="18" viewBox="0 0 18 18" fill="none" xmlns="http://www.w3.org/2000/svg">
<path d="M7.72294 7.56785C9.86216 7.56785 11.5963 5.87373 11.5963 3.78392C11.5963 1.69412 9.86216 0 7.72294 0C5.58373 0 3.84955 1.69412 3.84955 3.78392C3.84955 5.87373 5.58373 7.56785 7.72294 7.56785Z" fill="#7B7B7B"/>
<path d="M6.60766 15.657V17.4143C6.60766 17.5696 6.67083 17.7186 6.78328 17.8284C6.89572 17.9383 7.04823 18 7.20726 18H17.4004C17.5594 18 17.7119 17.9383 17.8244 17.8284C17.9368 17.7186 18 17.5696 18 17.4143V11.5568C18 11.4014 17.9368 11.2524 17.8244 11.1426C17.7119 11.0328 17.5594 10.971 17.4004 10.971H13.2032V10.11C13.2032 9.95464 13.1401 9.80566 13.0276 9.69581C12.9152 9.58596 12.7627 9.52425 12.6036 9.52425C12.4446 9.52425 12.2921 9.58596 12.1796 9.69581C12.0672 9.80566 12.004 9.95464 12.004 10.11V10.971H10.8048V8.87407C9.78594 8.7115 8.75531 8.62923 7.72291 8.62805C5.44612 8.61859 3.19484 9.09643 1.12735 10.028C0.787065 10.1849 0.499992 10.4338 0.300188 10.7453C0.100384 11.0567 -0.00376301 11.4177 0.000103898 11.7852V15.657H6.60766ZM16.8008 16.8285H7.80685V12.1425H12.004V12.3885C12.004 12.5439 12.0672 12.6929 12.1796 12.8027C12.2921 12.9126 12.4446 12.9743 12.6036 12.9743C12.7627 12.9743 12.9152 12.9126 13.0276 12.8027C13.1401 12.6929 13.2032 12.5439 13.2032 12.3885V12.1425H16.8008V16.8285Z" fill="#7B7B7B"/>
</svg>
