<svg width="17" height="23" viewBox="0 0 17 23" fill="none" xmlns="http://www.w3.org/2000/svg">
<path d="M15.4035 0.928894H11.3431C11.1816 0.928894 11.0267 0.993062 10.9125 1.10728C10.7982 1.2215 10.7341 1.37642 10.7341 1.53795C10.7341 1.69948 10.7982 1.85439 10.9125 1.96861C11.0267 2.08283 11.1816 2.147 11.3431 2.147H13.9336L10.8884 5.18617C10.172 4.4763 9.29556 3.94898 8.33283 3.64861C7.3701 3.34825 6.34929 3.28365 5.35637 3.46025C4.36346 3.63684 3.42752 4.04947 2.6274 4.66336C1.82727 5.27726 1.1864 6.07445 0.758746 6.98778C0.331095 7.90112 0.129196 8.90385 0.170054 9.91152C0.210912 10.9192 0.493331 11.9023 0.993523 12.778C1.49371 13.6537 2.19703 14.3964 3.04423 14.9435C3.89143 15.4906 4.8577 15.8261 5.86165 15.9217V17.9823H3.22243C3.06089 17.9823 2.90598 18.0465 2.79176 18.1607C2.67754 18.2749 2.61337 18.4299 2.61337 18.5914C2.61337 18.7529 2.67754 18.9078 2.79176 19.0221C2.90598 19.1363 3.06089 19.2004 3.22243 19.2004H5.86165V21.8397C5.86165 22.0012 5.92582 22.1561 6.04004 22.2703C6.15426 22.3846 6.30917 22.4487 6.4707 22.4487C6.63223 22.4487 6.78715 22.3846 6.90137 22.2703C7.01559 22.1561 7.07975 22.0012 7.07975 21.8397V19.2004H9.71898C9.88051 19.2004 10.0354 19.1363 10.1496 19.0221C10.2639 18.9078 10.328 18.7529 10.328 18.5914C10.328 18.4299 10.2639 18.2749 10.1496 18.1607C10.0354 18.0465 9.88051 17.9823 9.71898 17.9823H7.07975V15.9217C8.16583 15.8155 9.20563 15.4287 10.0971 14.7992C10.9885 14.1698 11.701 13.3194 12.1645 12.3315C12.6281 11.3436 12.8268 10.2521 12.7412 9.16419C12.6555 8.07629 12.2885 7.02935 11.6761 6.12613L14.7944 3.00779V5.59829C14.7944 5.75982 14.8586 5.91474 14.9728 6.02895C15.087 6.14317 15.2419 6.20734 15.4035 6.20734C15.565 6.20734 15.7199 6.14317 15.8341 6.02895C15.9483 5.91474 16.0125 5.75982 16.0125 5.59829V1.53795C16.0125 1.37642 15.9483 1.2215 15.8341 1.10728C15.7199 0.993062 15.565 0.928894 15.4035 0.928894ZM6.4707 14.7341C5.46688 14.7341 4.48559 14.4364 3.65094 13.8787C2.81629 13.321 2.16576 12.5283 1.78161 11.6009C1.39747 10.6735 1.29696 9.653 1.49279 8.66847C1.68863 7.68393 2.17202 6.77958 2.88183 6.06976C3.59164 5.35995 4.496 4.87656 5.48053 4.68073C6.46507 4.48489 7.48557 4.5854 8.41298 4.96955C9.3404 5.3537 10.1331 6.00423 10.6908 6.83888C11.2485 7.67353 11.5461 8.65481 11.5461 9.65864C11.5445 11.0042 11.0093 12.2942 10.0578 13.2457C9.10631 14.1972 7.8163 14.7325 6.4707 14.7341Z" fill="#11998E"/>
</svg>
