<svg width="16" height="16" viewBox="0 0 16 16" fill="none" xmlns="http://www.w3.org/2000/svg">
<path d="M6.4 0H9.6C10.0243 0 10.4313 0.177443 10.7314 0.493294C11.0314 0.809144 11.2 1.23753 11.2 1.68421V3.36842H14.4C14.8243 3.36842 15.2313 3.54586 15.5314 3.86171C15.8314 4.17757 16 4.60595 16 5.05263V14.3158C16 14.7625 15.8314 15.1909 15.5314 15.5067C15.2313 15.8226 14.8243 16 14.4 16H1.6C1.17565 16 0.768687 15.8226 0.468629 15.5067C0.168571 15.1909 0 14.7625 0 14.3158V5.05263C0 4.11789 0.712 3.36842 1.6 3.36842H4.8V1.68421C4.8 0.749474 5.512 0 6.4 0ZM9.6 3.36842V1.68421H6.4V3.36842H9.6Z" fill="#7B7B7B"/>
</svg>
