<svg width="18" height="18" viewBox="0 0 18 18" fill="none" xmlns="http://www.w3.org/2000/svg">
<path fill-rule="evenodd" clip-rule="evenodd" d="M2.84214 0C2.08836 0 1.36545 0.284464 0.832443 0.790812C0.299439 1.29716 0 1.98392 0 2.7V15.3C0 16.0161 0.299439 16.7028 0.832443 17.2092C1.36545 17.7155 2.08836 18 2.84214 18H8.52641C9.28019 18 10.0031 17.7155 10.5361 17.2092C11.0691 16.7028 11.3685 16.0161 11.3685 15.3V2.7C11.3685 1.98392 11.0691 1.29716 10.5361 0.790812C10.0031 0.284464 9.28019 0 8.52641 0H2.84214ZM12.5935 4.7637C12.7712 4.59498 13.0121 4.50019 13.2633 4.50019C13.5145 4.50019 13.7554 4.59498 13.9331 4.7637L17.7226 8.3637C17.9002 8.53247 18 8.76135 18 9C18 9.23865 17.9002 9.46752 17.7226 9.6363L13.9331 13.2363C13.7544 13.4002 13.5151 13.491 13.2667 13.4889C13.0183 13.4869 12.7807 13.3922 12.6051 13.2253C12.4294 13.0585 12.3298 12.8327 12.3276 12.5968C12.3254 12.3608 12.4209 12.1334 12.5935 11.9637L14.7659 9.9H6.63165C6.38039 9.9 6.13942 9.80518 5.96176 9.6364C5.78409 9.46761 5.68427 9.23869 5.68427 9C5.68427 8.76131 5.78409 8.53239 5.96176 8.3636C6.13942 8.19482 6.38039 8.1 6.63165 8.1H14.7659L12.5935 6.0363C12.4159 5.86752 12.3161 5.63865 12.3161 5.4C12.3161 5.16135 12.4159 4.93247 12.5935 4.7637Z" fill="#7B7B7B"/>
</svg>
