<svg width="15" height="15" viewBox="0 0 15 15" fill="none" xmlns="http://www.w3.org/2000/svg">
<path fill-rule="evenodd" clip-rule="evenodd" d="M9.42339 9.91549C8.3529 10.7464 6.99551 11.1476 5.63003 11.0366C4.26455 10.9257 2.99463 10.3111 2.08108 9.31896C1.16754 8.32685 0.679728 7.0326 0.717835 5.70201C0.755942 4.37143 1.31708 3.10553 2.28599 2.1643C3.2549 1.22307 4.55804 0.677966 5.92776 0.640948C7.29748 0.60393 8.6298 1.0778 9.65108 1.96525C10.6724 2.85269 11.3051 4.08633 11.4193 5.4128C11.5335 6.73926 11.1205 8.05786 10.2652 9.09777L14.3596 13.0745C14.4181 13.1275 14.4651 13.1913 14.4976 13.2623C14.5302 13.3333 14.5477 13.4099 14.5491 13.4876C14.5505 13.5653 14.5358 13.6424 14.5058 13.7145C14.4759 13.7865 14.4313 13.852 14.3747 13.9069C14.3182 13.9618 14.2508 14.0051 14.1767 14.0342C14.1025 14.0633 14.0231 14.0776 13.9431 14.0763C13.8631 14.0749 13.7843 14.0579 13.7112 14.0263C13.6381 13.9946 13.5724 13.949 13.5179 13.8922L9.42339 9.91549ZM3.13001 8.71052C2.54716 8.14426 2.15019 7.42287 1.98927 6.63751C1.82835 5.85215 1.9107 5.03808 2.22592 4.29818C2.54113 3.55827 3.07506 2.92575 3.76023 2.48054C4.4454 2.03533 5.25105 1.79742 6.07537 1.79689C6.89968 1.79635 7.70567 2.0332 8.39145 2.47751C9.07724 2.92182 9.61204 3.55365 9.92828 4.29314C10.2445 5.03263 10.328 5.8466 10.1682 6.63217C10.0083 7.41773 9.61237 8.13964 9.0303 8.70666L9.02633 8.71052L9.02236 8.7136C8.24023 9.47163 7.18035 9.89707 6.07553 9.8965C4.97071 9.89592 3.9113 9.46936 3.13001 8.71052Z" fill="white"/>
</svg>
