<svg width="18" height="18" viewBox="0 0 18 18" fill="none" xmlns="http://www.w3.org/2000/svg">
<path fill-rule="evenodd" clip-rule="evenodd" d="M9.26661 0.0614829C9.18248 0.0209646 9.09113 0 8.99871 0C8.90628 0 8.81493 0.0209646 8.7308 0.0614829L5.33607 1.69786L8.99612 3.46307L12.6588 1.69649L9.26661 0.0614829ZM4.72778 7.09491V2.90939L8.3516 4.65678V9.28223L5.1044 7.71848C4.99135 7.66404 4.89548 7.57629 4.82824 7.46572C4.761 7.35515 4.72523 7.22642 4.72519 7.09491H4.72778ZM9.64581 16.2937V11.7162L13.0781 13.3718V17.9973L9.83477 16.4335C9.76393 16.3994 9.70078 16.3521 9.64581 16.2937ZM14.3723 18V13.3718L18 11.623V15.8099C18 15.9415 17.9642 16.0702 17.897 16.1807C17.8297 16.2913 17.7338 16.3791 17.6208 16.4335L14.3723 18ZM8.34901 11.7162V16.2992C8.29517 16.355 8.23254 16.4005 8.16393 16.4335L4.91544 18V13.3718L8.34901 11.7162ZM3.62123 13.3718V17.9973L0.379206 16.4335C0.266155 16.3791 0.170287 16.2913 0.103047 16.1807C0.0358068 16.0702 3.43892e-05 15.9415 0 15.8099V11.6244L3.62381 13.3718H3.62123ZM9.64323 9.28497V4.65541L13.2709 2.90665V7.09491C13.2709 7.22642 13.2351 7.35515 13.1679 7.46572C13.1006 7.57629 13.0048 7.66404 12.8917 7.71848L9.64323 9.28497ZM13.4586 8.77788C13.5427 8.73737 13.6341 8.7164 13.7265 8.7164C13.8189 8.7164 13.9103 8.73737 13.9944 8.77788L17.3852 10.4115L13.7226 12.1781L10.0664 10.4115L13.4599 8.77514L13.4586 8.77788ZM4.00302 8.77788C4.08715 8.73737 4.1785 8.7164 4.27092 8.7164C4.36335 8.7164 4.4547 8.73737 4.53883 8.77788L7.92968 10.4115L4.26833 12.1795L0.609577 10.4115L4.00302 8.77788Z" fill="#7B7B7B"/>
</svg>
